<mxfile host="app.diagrams.net" modified="2024-05-31T08:13:37.315Z" agent="Mozilla/5.0 (Windows NT 10.0; Win64; x64) AppleWebKit/537.36 (KHTML, like Gecko) Chrome/126.0.0.0 Safari/537.36 Edg/126.0.0.0" version="24.4.10" etag="n56z1yrvylGB7uOBl6zA" type="github">
  <diagram name="第 1 页" id="wcutajMYTTpC4OUUDoZr">
    <mxGraphModel>
      <root>
        <mxCell id="0" />
        <mxCell id="1" parent="0" />
      </root>
    </mxGraphModel>
  </diagram>
</mxfile>
